<?xml version="1.0" encoding="utf-8"?>
<!-- Generator: Adobe Illustrator 17.1.0, SVG Export Plug-In . SVG Version: 6.00 Build 0)  -->
<!DOCTYPE svg PUBLIC "-//W3C//DTD SVG 1.1//EN" "http://www.w3.org/Graphics/SVG/1.1/DTD/svg11.dtd">
<svg version="1.1" id="Layer_1" xmlns="http://www.w3.org/2000/svg" xmlns:xlink="http://www.w3.org/1999/xlink" x="0px" y="0px"
	 width="640px" height="533px" viewBox="-210 -252 640 533" enable-background="new -210 -252 640 533" xml:space="preserve">
<polygon fill="none" stroke="#FFFFFF" stroke-width="2" stroke-miterlimit="10" points="474.4,-263.3 184.9,-263.3 184.9,-172.4 
	296,-172.4 296,-151.4 197.6,-151.4 197.6,-106.8 86.2,-106.8 68.1,-125 77.2,-135.4 77.2,-164.8 52,-139.1 52,-113.5 62.9,-113.5 
	62.9,-103.4 26.7,-103.4 -46.8,-30.2 -94.4,-30.2 -94.4,-17.2 -65,12.4 -65,48.9 -150.8,48.9 -150.8,151.5 -126.7,151.5 
	-105.1,173.5 -86.1,154.9 -41.7,154.9 72.6,34.7 140.3,100.4 140.3,113.7 149.3,122.3 166.8,105 159.1,97.2 164.7,91.7 172.9,99.9 
	180.6,92.1 102.1,13.5 123.6,13.7 226.3,117 237.9,117 237.9,122.9 228.9,122.9 219.7,131.7 239.1,150.7 268.2,150.7 268.2,78.3 
	339.8,78.3 339.8,148.2 427.3,148.2 427.3,228.9 371.4,228.9 358.9,241.6 203.4,241.6 203.4,223 179,223 179,235.7 134.5,235.7 
	82.3,184.1 82.3,153.2 -4.5,153.2 -40.7,188.5 -106.2,188.5 -106.2,177.5 -219.9,291.2 474.4,291.2 "/>
<rect x="67.6" y="69.4" fill="none" stroke="#FFFFFF" stroke-width="2" stroke-miterlimit="10" width="11.5" height="18.6"/>
<rect x="64.6" y="96.1" fill="none" stroke="#FFFFFF" stroke-width="2" stroke-miterlimit="10" width="17.5" height="28.7"/>
<polygon fill="none" stroke="#FFFFFF" stroke-width="2" stroke-miterlimit="10" points="146.5,120.8 146.5,157.6 109.7,120.8 "/>
<polyline fill="none" stroke="#FFFFFF" stroke-width="2" stroke-miterlimit="10" points="145.6,-263.9 145.6,-196.5 156.6,-196.5 
	156.6,-154.2 138.8,-154.2 138.8,-122.3 122.3,-122.3 122.3,-113.4 114.4,-113.4 102.6,-125.4 105.8,-128.7 112.5,-135.3 57,-190.9 
	43.1,-177 0.8,-177 0.8,-261.3 "/>
<rect x="88.1" y="-124.7" transform="matrix(-0.7071 0.7071 -0.7071 -0.7071 79.1409 -268.1221)" fill="#FFFFFF" width="14" height="14"/>
<g>
	
		<polyline fill="none" stroke="#FFBB00" stroke-width="7" stroke-linecap="round" stroke-linejoin="round" stroke-miterlimit="10" points="
		143.4,130.7 147.9,120.6 150.4,121.6 156.6,114.1 151.4,92.6 99.7,29.7 105.3,21 71.3,21 54.4,43.5 52.7,44.1 -4.5,-25.7 63,-42.2 
		74.4,-88.2 66.8,-104.5 68.5,-118 98.8,-116.2 110.2,-115.8 148.8,-163.8 	"/>
	<g>
		<text transform="matrix(1 0 0 1 95.4352 134.2061)" fill="#505050" font-family="'AS31AgateSans'" font-size="14.6539">Catania</text>
	</g>
	<g>
		<text transform="matrix(1 0 0 1 111.8512 25.6963)" fill="#505050" font-family="'AS31AgateSans'" font-size="12.6208">Venice</text>
	</g>
	<g>
		<text transform="matrix(1 0 0 1 59.1383 15.833)" fill="#505050" font-family="'AS31AgateSans'" font-size="12.6208">Milan</text>
	</g>
	<g>
		<text transform="matrix(1 0 0 1 28.1989 55.4853)" fill="#505050" font-family="'AS31AgateSans'" font-size="12.6208">Nice</text>
	</g>
	<g>
		<text transform="matrix(1 0 0 1 12.0309 74.8525)" fill="#505050" font-family="'AS31AgateSans'" font-size="12.6208">Veintimiglia</text>
	</g>
	<g>
		<text transform="matrix(1 0 0 1 72.0602 -36.8662)" fill="#505050" font-family="'AS31AgateSans'" font-size="12.6208">Frankfurt</text>
	</g>
	<g>
		<text transform="matrix(1 0 0 1 87.6696 -14.2588)" fill="#505050" font-family="'AS31AgateSans'" font-size="12.6208">Ulm</text>
	</g>
	<g>
		<text transform="matrix(1 0 0 1 84.486 -83.9189)" fill="#505050" font-family="'AS31AgateSans'" font-size="12.6208">Hamburg</text>
	</g>
	<g>
		<text transform="matrix(1 0 0 1 12.6676 -91.5439)" fill="#505050" font-family="'AS31AgateSans'" font-size="12.6208">Flensburg</text>
	</g>
	<g>
		<text transform="matrix(1 0 0 1 15.3864 -114.6553)" fill="#505050" font-family="'AS31AgateSans'" font-size="12.6208">Fredirica</text>
	</g>
	<g>
		<text transform="matrix(1 0 0 1 118.1266 -110.5244)" fill="#505050" font-family="'AS31AgateSans'" font-size="12.6208">Malmo</text>
	</g>
	<g>
		<text transform="matrix(1 0 0 1 -43.2933 -21.1865)" font-family="'DE5DisplayEgyptianSemiBold'" font-size="13.4622">Paris</text>
	</g>
	<g>
		<text transform="matrix(1 0 0 1 22.0641 -130.5362)" font-family="'DE5DisplayEgyptianSemiBold'" font-size="13.4622">Copenhagen</text>
	</g>
	<g>
		<text transform="matrix(1 0 0 1 161.568 -157.9883)" font-family="'DE5DisplayEgyptianSemiBold'" font-size="16.8277">Stockholm</text>
	</g>
	<g>
		
			<text transform="matrix(1 0 0 1 -1.0784 -150.6182)" fill="none" stroke="#A7A19A" stroke-width="2" stroke-linecap="round" stroke-linejoin="round" stroke-miterlimit="10" font-family="'DCDisplayEgyptianCondensed-5Semibold'" font-size="18.5105">Denmark</text>
	</g>
	<g>
		
			<text transform="matrix(1 0 0 1 -49.9398 24.0576)" fill="none" stroke="#A7A19A" stroke-width="2" stroke-linecap="round" stroke-linejoin="round" stroke-miterlimit="10" font-family="'DCDisplayEgyptianCondensed-5Semibold'" font-size="18.5105">France</text>
	</g>
	<g>
		
			<text transform="matrix(1 0 0 1 90.154 92.5283)" fill="none" stroke="#A7A19A" stroke-width="2" stroke-linecap="round" stroke-linejoin="round" stroke-miterlimit="10" font-family="'DCDisplayEgyptianCondensed-5Semibold'" font-size="18.5105">Italy</text>
	</g>
	<g>
		
			<text transform="matrix(1 0 0 1 108.2946 -58.8662)" fill="none" stroke="#A7A19A" stroke-width="2" stroke-linecap="round" stroke-linejoin="round" stroke-miterlimit="10" font-family="'DCDisplayEgyptianCondensed-5Semibold'" font-size="18.5105">Germany</text>
	</g>
	<g>
		
			<text transform="matrix(1 0 0 1 66.0954 -191.4659)" fill="none" stroke="#A7A19A" stroke-width="2" stroke-linecap="round" stroke-linejoin="round" stroke-miterlimit="10" font-family="'DCDisplayEgyptianCondensed-5Semibold'" font-size="18.5105">Sweden</text>
	</g>
	<g>
		
			<text transform="matrix(1 0 0 1 -1.0784 -150.6182)" fill="#FFFFFF" font-family="'DCDisplayEgyptianCondensed-5Semibold'" font-size="18.5105">Denmark</text>
	</g>
	<g>
		
			<text transform="matrix(1 0 0 1 -49.9398 24.0576)" fill="#FFFFFF" font-family="'DCDisplayEgyptianCondensed-5Semibold'" font-size="18.5105">France</text>
	</g>
	<g>
		
			<text transform="matrix(1 0 0 1 90.154 92.5283)" fill="#FFFFFF" font-family="'DCDisplayEgyptianCondensed-5Semibold'" font-size="18.5105">Italy</text>
	</g>
	<g>
		
			<text transform="matrix(1 0 0 1 108.2946 -58.8662)" fill="#FFFFFF" font-family="'DCDisplayEgyptianCondensed-5Semibold'" font-size="18.5105">Germany</text>
	</g>
	<g>
		
			<text transform="matrix(1 0 0 1 66.0954 -191.4659)" fill="#FFFFFF" font-family="'DCDisplayEgyptianCondensed-5Semibold'" font-size="18.5105">Sweden</text>
	</g>
</g>
<circle stroke="#FFFFFF" stroke-width="4" stroke-miterlimit="10" cx="147.7" cy="-162.3" r="7.7"/>
<g>
	
		<path fill="none" stroke="#FFBB00" stroke-width="4" stroke-linecap="round" stroke-linejoin="round" stroke-miterlimit="10" stroke-dasharray="2,8" d="
		M371.4,229c0,0-80.8-62.5-228-97.6"/>
</g>
<circle cx="110.2" cy="-115.8" r="2.4"/>
<circle stroke="#FFFFFF" stroke-miterlimit="10" cx="97.2" cy="-116.2" r="3.3"/>
<circle cx="68.5" cy="-118" r="2.4"/>
<circle cx="66.8" cy="-104.5" r="2.4"/>
<circle cx="74.4" cy="-88.2" r="2.4"/>
<circle cx="63" cy="-42.2" r="2.4"/>
<circle cx="79.8" cy="-17.6" r="2.4"/>
<circle stroke="#FFFFFF" stroke-miterlimit="10" cx="-3.5" cy="-25.7" r="3.3"/>
<circle cx="52.7" cy="44.1" r="2.4"/>
<circle cx="71.3" cy="21" r="2.4"/>
<circle cx="105.3" cy="21" r="2.4"/>
<circle cx="143.5" cy="130.9" r="2.4"/>
<polyline fill="none" stroke="#000000" stroke-width="2" stroke-miterlimit="10" points="125.8,66.5 126.2,62.3 130.4,62.8 "/>
<polyline fill="none" stroke="#000000" stroke-width="2" stroke-miterlimit="10" points="89.1,24.1 86.2,21 89.2,18.1 "/>
<polyline fill="none" stroke="#000000" stroke-width="2" stroke-miterlimit="10" points="21.6,11.4 22.1,7.2 26.3,7.6 "/>
<polyline fill="none" stroke="#000000" stroke-width="2" stroke-miterlimit="10" points="26.9,-36.4 30.6,-34.2 28.4,-30.6 "/>
<polyline fill="none" stroke="#000000" stroke-width="2" stroke-miterlimit="10" points="65.5,-64.1 69,-66.5 71.3,-62.9 "/>
<polyline fill="none" stroke="#000000" stroke-width="2" stroke-miterlimit="10" points="125.5,-139.8 129.7,-140.3 130.2,-136.1 
	"/>
<line fill="none" stroke="#000000" stroke-width="4" stroke-miterlimit="10" stroke-dasharray="2,2" x1="61.3" y1="-111" x2="75.6" y2="-111"/>
<line fill="none" stroke="#000000" stroke-width="4" stroke-miterlimit="10" stroke-dasharray="2,2" x1="104.2" y1="-122.8" x2="104.2" y2="-107.6"/>
<line fill="none" stroke="#000000" stroke-width="4" stroke-miterlimit="10" stroke-dasharray="2,2" x1="42.2" y1="-43.4" x2="45.8" y2="-30"/>
<line fill="none" stroke="#000000" stroke-width="4" stroke-miterlimit="10" stroke-dasharray="2,2" x1="54.1" y1="34.1" x2="63.8" y2="42.7"/>
<polygon fill="none" stroke="#FFFFFF" stroke-width="2" stroke-miterlimit="10" points="-110.4,-58.8 -58.2,-58.8 -58.2,-83.6 
	-110.4,-135.6 -110.4,-154.7 -125.5,-154.7 -125.5,-122.7 -110.4,-107.5 "/>
<rect x="-143.3" y="-111" fill="none" stroke="#FFFFFF" stroke-width="2" stroke-miterlimit="10" width="23.5" height="36.4"/>
<g>
	<g>
		<path fill="#5F88C5" d="M127.9,179.3l1,0.3l4.7-4.5l-0.7-0.7l0.6-0.5l2.7,1.7l-2.7,4.9l0,0l5.6-3l2.9,1.8l-0.6,0.5l-1-0.4
			l-4.7,4.5l0.7,0.7l-0.5,0.5l-2.9-1.9l0.5-0.5l0.8,0.3l4.5-4.2l0,0l-6.7,3.5l-0.9-0.6l3.2-5.8l0,0l-4.5,4.2l0.5,0.6l-0.5,0.5
			l-2.4-1.5L127.9,179.3z"/>
		<path fill="#5F88C5" d="M139.5,185.1c1.3-2.2,4-2.8,5.5-1.9c0.8,0.5,1.3,1.2,0.8,1.9c-0.8,1.3-2.4,1-4.6,0.1
			c-0.1,0.2-0.2,0.3-0.3,0.4c-0.4,0.7-0.4,1.3,0.3,1.7c0.6,0.3,1.3,0.4,1.9,0.4l-0.5,0.6c-0.6,0.1-1.5,0.1-2.4-0.4
			C139.1,187.3,138.9,186.2,139.5,185.1z M141.7,184.8c1.3,0.5,2.4,0.6,2.9-0.2c0.2-0.3,0.1-0.5-0.2-0.7
			C143.7,183.5,142.5,183.9,141.7,184.8z"/>
		<path fill="#5F88C5" d="M146,189.3c1.1-2.1,3.9-3.3,5.8-2.3c0.4,0.3,0.7,0.4,0.8,0.7l1.2-1.2L153,186l0.5-0.6l2.2,0.8l0.1,0.2
			l-5.6,6l0.9,0.5l-0.4,0.4c-0.4,0-1.2-0.2-1.7-0.5c-0.4-0.3-0.5-0.6-0.1-0.9l0.5-0.5h-0.1c-1,0.4-2,0.7-2.8,0.3
			C145.7,191.1,145.5,190.3,146,189.3z M149.9,190.4l1.9-2c-0.1-0.3-0.2-0.5-0.5-0.7c-1.2-0.7-3,0.6-3.8,2c-0.3,0.5-0.3,0.9,0.1,1.1
			C148.1,191.1,148.9,190.8,149.9,190.4z"/>
		<path fill="#5F88C5" d="M154.1,194.3l3.1-3.5l-0.8-0.4l0.5-0.6l2.3,0.8l0.1,0.2l-3.7,4.1l0.9,0.4l-0.4,0.4c-0.4,0-1.2-0.2-1.7-0.4
			C153.8,195.2,153.6,194.9,154.1,194.3z M158.8,188.6c0.3-0.5,0.8-0.6,1.2-0.4c0.4,0.2,0.6,0.6,0.4,1c-0.3,0.5-0.8,0.6-1.2,0.4
			C158.8,189.4,158.6,189,158.8,188.6z"/>
		<path fill="#5F88C5" d="M162,192.3l1,0.2l1-1.2l1.3,0.6l-1,1.2l1.2,0.5l-0.6,0.8l-1.2-0.5l-2.6,3.1c-0.3,0.3-0.3,0.5,0.1,0.7
			c0.4,0.2,0.8,0.3,1.1,0.3l-0.5,0.6c-0.3,0-0.9,0-1.7-0.3c-0.6-0.3-0.9-0.8-0.7-1.3c0.1-0.2,0.2-0.3,0.3-0.4l2.6-3.1l-0.8-0.3
			L162,192.3z"/>
		<path fill="#5F88C5" d="M165.6,198.1c0.9-2.4,3.4-3.4,5.1-2.7c0.9,0.3,1.4,0.9,1.1,1.8c-0.5,1.3-2.2,1.4-4.5,0.8
			c-0.1,0.2-0.2,0.3-0.2,0.4c-0.3,0.8-0.2,1.3,0.6,1.6c0.6,0.3,1.3,0.3,2,0.1l-0.4,0.7c-0.5,0.3-1.4,0.3-2.4,0
			C165.5,200.3,165.2,199.3,165.6,198.1z M167.7,197.5c1.4,0.3,2.4,0.3,2.8-0.7c0.1-0.3,0-0.5-0.3-0.6
			C169.5,195.9,168.4,196.5,167.7,197.5z"/>
		<path fill="#5F88C5" d="M175.5,198.2l-0.8-0.3l0.4-0.6l2.2,0.3l0.1,0.2l-1,1.6h0.1c1-0.9,2-1.3,2.8-1.2c0.5,0.2,0.7,0.5,0.6,0.9
			c-0.1,0.4-0.5,0.8-0.8,0.9l-0.8-0.3l0.3-0.7c-0.7,0-1.7,0.6-2.6,1.4l-1.8,2.6l-1.4-0.4L175.5,198.2z"/>
		<path fill="#5F88C5" d="M183,200.3l-0.8-0.2l0.3-0.7l2.2,0.2l0.1,0.1l-0.9,1.7h0.1c1-1,1.9-1.5,2.7-1.3c0.5,0.1,0.7,0.4,0.6,0.8
			c-0.1,0.4-0.4,0.8-0.8,1l-0.9-0.2l0.3-0.7c-0.7,0-1.6,0.7-2.5,1.6l-1.6,2.8l-1.4-0.3L183,200.3z"/>
		<path fill="#5F88C5" d="M188,205.5c0.4-2.4,2.9-4.3,4.8-4c0.4,0.1,0.8,0.3,0.9,0.4h0.1l0.3-0.3l1.1,0.2l-2.5,5l1,0.2l-0.3,0.6
			c-0.4,0.1-1.2,0.2-1.7,0.1c-0.4-0.1-0.6-0.3-0.5-0.6c0-0.1,0.1-0.2,0.1-0.3l0.3-0.5h-0.1c-0.8,0.8-1.6,1.2-2.4,1
			S187.9,206.4,188,205.5z M191.9,205.2l1.3-2.4c-0.1-0.3-0.3-0.4-0.6-0.4c-1.1-0.2-2.7,1.4-2.9,3.2c-0.1,0.5,0,0.8,0.3,0.8
			C190.5,206.3,191.2,205.8,191.9,205.2z"/>
		<path fill="#5F88C5" d="M200.7,207.8l1.4-3.4c0.1-0.3,0.2-0.4,0.2-0.6c0-0.3-0.1-0.3-0.3-0.3c-0.6-0.1-1.5,0.7-2.4,1.5l-1.3,3.3
			l-1.4-0.2l2-5l-0.8-0.1l0.3-0.7l2.2-0.2l0.1,0.1l-0.7,1.6h0.1c1-1.1,1.9-1.6,2.9-1.5c0.6,0.1,1,0.4,0.9,1.2c0,0.3-0.1,0.5-0.3,0.8
			l-1.4,3.4l1,0.1l-0.3,0.6c-0.4,0.2-1.1,0.3-1.7,0.2C200.8,208.7,200.5,208.5,200.7,207.8z"/>
		<path fill="#5F88C5" d="M206.6,207.1c0.1-2.5,2.1-4.3,3.9-4.3c0.9,0,1.7,0.4,1.7,1.3c0,1.5-1.6,2.1-4,2.4c0,0.2,0,0.3,0,0.5
			c0,0.8,0.3,1.3,1.1,1.3c0.7,0,1.3-0.3,1.9-0.6l-0.2,0.8c-0.4,0.4-1.3,0.8-2.3,0.8C207.3,209.1,206.6,208.2,206.6,207.1z
			 M208.3,205.7c1.5-0.2,2.4-0.6,2.4-1.6c0-0.3-0.2-0.5-0.4-0.5C209.5,203.6,208.7,204.5,208.3,205.7z"/>
		<path fill="#5F88C5" d="M214.6,207.6c-0.1-2.4,1.9-4.8,3.9-4.9c0.4,0,0.8,0.1,1,0.3h0.1l0.3-0.3l1.1-0.1l-1.5,5.4h1l-0.2,0.6
			c-0.4,0.2-1.1,0.4-1.7,0.4c-0.4,0-0.6-0.2-0.6-0.5c0-0.1,0-0.3,0-0.3l0.2-0.6h-0.1c-0.6,0.8-1.3,1.4-2.2,1.5
			C215.1,209.2,214.6,208.7,214.6,207.6z M218.3,206.6l0.7-2.7c-0.2-0.2-0.4-0.3-0.7-0.3c-1.1,0.1-2.4,1.9-2.3,3.7
			c0,0.5,0.2,0.8,0.5,0.7C217.1,208.1,217.8,207.4,218.3,206.6z"/>
		<path fill="#5F88C5" d="M227.4,207.5l0.8-3.5c0.1-0.3,0.1-0.4,0.1-0.6c0-0.3-0.2-0.3-0.3-0.3c-0.6,0.1-1.3,1-1.9,1.9l-0.7,3.4
			l-1.4,0.2l1-5.4l-0.8,0.1l0.1-0.8l2.1-0.6l0.2,0.1l-0.3,1.7h0.1c0.8-1.3,1.6-1.9,2.5-2c0.6-0.1,1.1,0.3,1.2,1c0,0.3,0,0.5-0.1,0.8
			l-0.8,3.6l1-0.1l-0.2,0.6c-0.3,0.2-1,0.4-1.6,0.5C227.6,208.3,227.3,208.1,227.4,207.5z"/>
		<path fill="#5F88C5" d="M237.5,206.5v-1.9l0.8-0.2l0.3,1c0.3,0.2,0.6,0.3,1.3,0.2c0.9-0.2,1.4-0.8,1.3-1.7
			c-0.1-0.5-0.5-0.8-1.3-1.1l-0.7-0.3c-0.8-0.3-1.3-0.8-1.5-1.7c-0.3-1.3,0.5-2.7,2.5-3c1.1-0.2,1.7-0.1,2.2,0l0.1,1.8l-0.8,0.2
			l-0.3-0.8c-0.2-0.1-0.4-0.3-1.1-0.1c-0.8,0.2-1.3,0.7-1.2,1.4c0.1,0.5,0.3,0.8,1.1,1l0.6,0.3c0.9,0.3,1.6,0.8,1.8,1.7
			c0.3,1.4-0.6,2.9-2.8,3.4C239,206.7,238.1,206.6,237.5,206.5z"/>
		<path fill="#5F88C5" d="M245.8,203.4c-0.5-2.4,1.1-4.7,2.8-5c0.9-0.2,1.8,0,1.9,0.9c0.3,1.4-1.1,2.4-3.4,3.2
			c0,0.2,0.1,0.3,0.1,0.5c0.2,0.8,0.5,1.2,1.3,1c0.7-0.2,1.3-0.6,1.8-1v0.8c-0.3,0.5-1,1.1-2,1.3C246.9,205.2,246,204.5,245.8,203.4
			z M247.1,201.7c1.4-0.5,2.2-1.2,1.9-2.1c-0.1-0.3-0.3-0.4-0.5-0.3C247.8,199.3,247.2,200.4,247.1,201.7z"/>
		<path fill="#5F88C5" d="M253.3,202.2c-0.6-2.4,0.8-5,2.8-5.6c0.3-0.1,0.8-0.1,1,0.1h0.1l0.3-0.4l1.1-0.3l-0.3,5.6l1-0.3l-0.1,0.6
			c-0.3,0.3-1,0.6-1.5,0.8c-0.4,0.1-0.6,0-0.7-0.3c0-0.1,0-0.2,0-0.3v-0.6h-0.1c-0.4,1-1,1.7-1.9,1.9
			C254.2,203.6,253.5,203.2,253.3,202.2z M256.8,200.4l0.2-2.8c-0.2-0.2-0.4-0.3-0.8-0.2c-1.1,0.3-1.9,2.4-1.4,4.1
			c0.1,0.4,0.3,0.7,0.6,0.6C255.9,202.1,256.4,201.3,256.8,200.4z"/>
	</g>
</g>
<g>
	<path fill="none" stroke="#505050" stroke-miterlimit="10" d="M64.6,35l8.3,8.2c0.7,0.7,1.3,1.9,1.3,2.8v16.3"/>
</g>
<circle cx="63.2" cy="33.4" r="2.4"/>
</svg>
